# File created by Blade
# Date/Time:  Thu Sep 25 14:26:36 2014
# Frame Rate: 120.000 fps
#------------------------------------------------------
:FULLY-SPECIFIED
:DEGREES
1804
root 24.086459 17.194050 -2.123701 267.638352 86.857559 291.331138
Spine -7.247020 14.991265 4.225994
Head 1.037339 -14.916844 7.389768
LeftShoulder -16.938622 25.240677 5.985508
LeftArm 14.014694 12.575697 -64.768135
LeftForeArm 9.195011 -0.000000 38.295669
LeftHand -30.952914 -0.000000 28.731827
LeftHandThumb1 -26.253704 0.000000 33.147579
RightShoulder -19.134446 6.277744 -11.348214
RightArm 161.145801 -146.679381 269.095590
RightForeArm -29.417635 -0.000000 46.865969
RightHand -6.307980 0.000000 -15.288995
RightHandThumb1 -24.326973 -0.000000 -32.862282
LeftUpLeg 20.031942 -6.810407 22.159714
LeftLeg 112.948311 -0.000000 -0.000000
LeftFoot -18.483649 -7.273713 -32.231411
LeftToeBase -21.681740 -0.000000 0.000000
RightUpLeg 19.270309 11.144540 -11.781625
RightLeg 110.215558 -0.000000 -0.000000
RightFoot -7.993163 6.604618 12.670804
RightToeBase -70.169185 -0.000000 0.000000
1805
root 24.191643 17.189354 -2.118080 271.698911 86.768030 294.557483
Spine -6.805704 14.707826 4.540034
Head 0.193646 -14.615961 7.173381
LeftShoulder -16.911050 25.256370 5.872581
LeftArm 14.775275 12.944428 -64.757315
LeftForeArm 9.944737 0.000000 38.542896
LeftHand -30.734383 0.000000 26.628690
LeftHandThumb1 -26.253704 0.000000 33.147579
RightShoulder -19.042456 6.182962 -11.520716
RightArm 160.854385 -145.981334 269.212126
RightForeArm -29.040889 -0.000000 46.094912
RightHand -6.466853 -0.000000 -15.132120
RightHandThumb1 -24.326973 -0.000000 -32.862282
LeftUpLeg 19.663091 -6.510380 22.362828
LeftLeg 112.683826 -0.000000 -0.000000
LeftFoot -18.280326 -7.655286 -32.195859
LeftToeBase -21.145608 -0.000000 0.000000
RightUpLeg 18.626661 11.039539 -11.883129
RightLeg 110.001780 -0.000000 -0.000000
RightFoot -7.507214 6.029376 12.726971
RightToeBase -70.325594 -0.000000 0.000000
1806
root 24.288953 17.176498 -2.119118 275.827121 86.747853 297.868775
Spine -6.274712 14.508715 4.745042
Head -0.806314 -14.348725 7.048777
LeftShoulder -16.653107 25.011763 5.880810
LeftArm 15.195808 13.246917 -64.813458
LeftForeArm 10.015803 -0.000000 38.965416
LeftHand -30.176013 -0.000000 24.873160
LeftHandThumb1 -26.253704 0.000000 33.147579
RightShoulder -19.027503 6.276262 -11.658885
RightArm 160.451359 -145.437204 269.299195
RightForeArm -28.520775 -0.000000 45.334352
RightHand -6.339583 -0.000000 -14.810794
RightHandThumb1 -24.326973 -0.000000 -32.862282
LeftUpLeg 19.290439 -6.244239 22.430768
LeftLeg 112.483400 -0.000000 -0.000000
LeftFoot -18.050346 -8.043384 -32.140935
LeftToeBase -20.874426 -0.000000 0.000000
RightUpLeg 17.973853 11.030040 -12.070735
RightLeg 109.885267 -0.000000 -0.000000
RightFoot -6.998949 5.876046 13.013842
RightToeBase -70.685168 -0.000000 0.000000
1807
root 24.373730 17.164490 -2.111985 278.691874 86.662866 299.884405
Spine -5.799041 14.240653 4.965296
Head -1.774895 -14.130208 7.042816
LeftShoulder -16.541519 24.877575 5.834265
LeftArm 15.853103 13.563795 -64.771155
LeftForeArm 9.902847 -0.000000 39.297000
LeftHand -29.551797 -0.000000 23.355932
LeftHandThumb1 -26.253704 0.000000 33.147579
RightShoulder -19.018162 6.390295 -11.717852
RightArm 160.130864 -144.920473 269.291191
RightForeArm -27.875955 -0.000000 44.466822
RightHand -6.250382 -0.000000 -14.392507
RightHandThumb1 -24.326973 -0.000000 -32.862282
LeftUpLeg 18.831123 -6.060960 22.564947
LeftLeg 112.303882 -0.000000 -0.000000
LeftFoot -17.867243 -8.399483 -31.904632
LeftToeBase -20.675890 -0.000000 0.000000
RightUpLeg 17.266932 10.999377 -12.118612
RightLeg 109.810095 -0.000000 -0.000000
RightFoot -6.182158 5.777925 13.160475
RightToeBase -71.011611 -0.000000 0.000000
1808
root 24.449842 17.151288 -2.106663 283.766690 86.577460 304.109042
Spine -5.318256 14.120387 5.129796
Head -2.733301 -13.963092 7.073504
LeftShoulder -16.390795 24.680068 5.798145
LeftArm 16.375080 13.814290 -64.725004
LeftForeArm 9.808418 0.000000 39.743996
LeftHand -29.248466 -0.000000 22.241151
LeftHandThumb1 -26.253704 0.000000 33.147579
RightShoulder -19.042108 6.484967 -11.725071
RightArm 159.897807 -144.565093 269.193554
RightForeArm -27.107800 -0.000000 43.630688
RightHand -6.274686 -0.000000 -13.835011
RightHandThumb1 -24.326973 -0.000000 -32.862282
LeftUpLeg 18.386989 -5.766311 22.637845
LeftLeg 112.147696 -0.000000 -0.000000
LeftFoot -17.590464 -8.620546 -31.565294
LeftToeBase -20.834324 -0.000000 0.000000
RightUpLeg 16.481853 11.117828 -12.236215
RightLeg 109.798532 -0.000000 -0.000000
RightFoot -5.196638 5.255975 12.787399
RightToeBase -71.144882 -0.000000 0.000000
1809
root 24.538578 17.143046 -2.105713 289.436833 86.514554 309.021349
Spine -4.771339 13.979180 5.214785
Head -3.669606 -13.770340 7.197011
LeftShoulder -16.302935 24.402734 5.787388
LeftArm 16.805417 14.043924 -64.641066
LeftForeArm 9.704240 -0.000000 40.215141
LeftHand -28.394848 0.000000 21.219507
LeftHandThumb1 -26.253704 0.000000 33.147579
RightShoulder -19.121321 6.556589 -11.712861
RightArm 159.763489 -144.334750 269.035853
RightForeArm -26.384927 -0.000000 42.785031
RightHand -6.205269 -0.000000 -13.185062
RightHandThumb1 -24.326973 -0.000000 -32.862282
LeftUpLeg 18.059338 -5.441391 22.628695
LeftLeg 111.947721 -0.000000 -0.000000
LeftFoot -17.332756 -8.490681 -30.857190
LeftToeBase -20.487326 -0.000000 0.000000
RightUpLeg 15.817757 11.312814 -12.412655
RightLeg 109.785213 -0.000000 -0.000000
RightFoot -4.205469 5.041777 12.834803
RightToeBase -71.324701 -0.000000 0.000000
1810
root 24.622947 17.137737 -2.107610 294.295123 86.436447 313.161836
Spine -4.192513 13.684255 5.314479
Head -4.541922 -13.559477 7.339193
LeftShoulder -16.319374 24.282117 5.658950
LeftArm 17.299220 14.113935 -64.512094
LeftForeArm 9.832744 -0.000000 40.801827
LeftHand -28.477721 -0.000000 20.319640
LeftHandThumb1 -26.253704 0.000000 33.147579
RightShoulder -19.059269 6.672786 -11.667017
RightArm 159.601319 -144.458992 268.805896
RightForeArm -25.749063 0.000000 42.070183
RightHand -6.101111 -0.000000 -12.551452
RightHandThumb1 -24.326973 -0.000000 -32.862282
LeftUpLeg 17.754387 -5.208112 22.555814
LeftLeg 111.765965 -0.000000 -0.000000
LeftFoot -17.030245 -8.405933 -30.322382
LeftToeBase -19.538833 -0.000000 0.000000
RightUpLeg 15.209850 11.443916 -12.567426
RightLeg 109.840150 -0.000000 -0.000000
RightFoot -3.296875 4.858110 12.332570
RightToeBase -71.493541 -0.000000 0.000000
1811
root 24.680745 17.129237 -2.092203 299.055942 86.186157 317.066204
Spine -3.752395 13.463785 5.491948
Head -5.344288 -13.271783 7.506291
LeftShoulder -16.387035 24.165412 5.495213
LeftArm 17.856832 14.103232 -64.335955
LeftForeArm 10.160438 -0.000000 41.353856
LeftHand -28.219625 -0.000000 19.326592
LeftHandThumb1 -26.253704 0.000000 33.147579
RightShoulder -19.034248 6.693702 -11.604663
RightArm 159.630393 -144.655956 268.485222
RightForeArm -25.207568 -0.000000 41.361231
RightHand -5.930283 -0.000000 -11.284175
RightHandThumb1 -24.326973 -0.000000 -32.862282
LeftUpLeg 17.235432 -4.831648 22.725147
LeftLeg 111.696053 -0.000000 -0.000000
LeftFoot -16.617603 -8.059747 -29.602895
LeftToeBase -18.676899 -0.000000 0.000000
RightUpLeg 14.402460 11.484192 -12.657975
RightLeg 110.132069 -0.000000 -0.000000
RightFoot -2.916349 4.048037 11.542573
RightToeBase -40.570708 -0.000000 0.000000
1812
root 24.759826 17.130449 -2.106004 303.469993 86.146599 320.760957
Spine -3.259505 13.166048 5.497989
Head -5.992307 -13.030940 7.612521
LeftShoulder -16.471635 24.129139 5.256654
LeftArm 18.457206 13.973255 -64.068724
LeftForeArm 11.029062 -0.000000 41.961772
LeftHand -27.944996 -0.000000 17.962922
LeftHandThumb1 -26.253704 0.000000 33.147579
RightShoulder -19.008080 6.693943 -11.566209
RightArm 159.596202 -145.096817 268.160949
RightForeArm -24.955446 -0.000000 40.788885
RightHand -5.911253 0.000000 -10.373977
RightHandThumb1 -24.326973 -0.000000 -32.862282
LeftUpLeg 16.859475 -4.514751 22.561355
LeftLeg 111.544175 -0.000000 -0.000000
LeftFoot -16.182607 -7.349583 -28.867821
LeftToeBase -17.421462 -0.000000 0.000000
RightUpLeg 13.798066 11.592456 -12.890571
RightLeg 110.143682 -0.000000 -0.000000
RightFoot -2.203763 3.425515 11.310687
RightToeBase -38.080175 -0.000000 0.000000
1813
root 24.832153 17.129631 -2.114733 306.884412 86.112153 323.412549
Spine -2.846562 12.758880 5.503162
Head -6.559102 -12.696136 7.716851
LeftShoulder -16.726737 24.140929 4.945552
LeftArm 19.204932 13.969819 -63.661586
LeftForeArm 11.728187 -0.000000 42.506554
LeftHand -27.730740 -0.000000 17.477302
LeftHandThumb1 -26.253704 0.000000 33.147579
RightShoulder -19.036816 6.769081 -11.612574
RightArm 159.509783 -145.502802 267.948109
RightForeArm -24.746561 -0.000000 40.190877
RightHand -5.677071 0.000000 -9.898874
RightHandThumb1 -24.326973 -0.000000 -32.862282
LeftUpLeg 16.387159 -4.233443 22.425588
LeftLeg 111.421581 -0.000000 -0.000000
LeftFoot -15.544295 -6.564528 -28.635920
LeftToeBase -15.320655 -0.000000 0.000000
RightUpLeg 13.181756 11.572704 -13.119022
RightLeg 110.128730 -0.000000 -0.000000
RightFoot -1.732553 2.464875 10.595967
RightToeBase -35.874455 -0.000000 0.000000
